# xmcd
#
# Track frame offsets:
#        150
#        16026
#        28376
#        43731
#        58782
#        73225
#        88061
#        102970
#        117561
#        131204
#        145382
#        157711
#        171519
#        185547
#        200853
#        214267
#        229708
#        245434
#        258759
#        272264
#
# Disc length: 3803 seconds
#
# Revision: 0
# Processed by: cddbd v1.5.1PL0 Copyright (c) Steve Scherf et al.
# Submitted via: ExactAudioCopy v0.95b3
#
DISCID=2e0ed914
DTITLE=Duke Ellington - The Duke [204139-336] - [204153-302] Cotton Ta
DTITLE=il (1940) [CD2)
DYEAR=2004
DGENRE=Pop
TTITLE0=All Too Soon
TTITLE1=Rumpus In Richmond
TTITLE2=My Greatest Mistake
TTITLE3=Sepia Panorama
TTITLE4=There Shall Be No Night
TTITLE5=In A Mellotone
TTITLE6=Five O'Clock Whistle
TTITLE7=Warm Valley
TTITLE8=Pitter Panther Patter
TTITLE9=Body And Soul
TTITLE10=Sophisticated Lady
TTITLE11=Mr. J.B. Blues
TTITLE12=The Flaming Sword
TTITLE13=Warm Valley
TTITLE14=Across The Track Blues
TTITLE15=Chloe (Song Of The Swamp)
TTITLE16=I Never Felt This Way Before
TTITLE17=Day Dream
TTITLE18=Good Queen Bess
TTITLE19=That's The Blues, Old Man
EXTD=
EXTT0=
EXTT1=
EXTT2=
EXTT3=
EXTT4=
EXTT5=
EXTT6=
EXTT7=
EXTT8=
EXTT9=
EXTT10=
EXTT11=
EXTT12=
EXTT13=
EXTT14=
EXTT15=
EXTT16=
EXTT17=
EXTT18=
EXTT19=
PLAYORDER=
